<mxfile host="65bd71144e" pages="7">
    <diagram id="9YUfMd6E4KthZk4kom6o" name="access_audit_logs">
        <mxGraphModel dx="1080" dy="878" grid="1" gridSize="10" guides="1" tooltips="1" connect="1" arrows="1" fold="1" page="1" pageScale="1" pageWidth="850" pageHeight="1100" math="0" shadow="0">
            <root>
                <mxCell id="0"/>
                <mxCell id="1" parent="0"/>
                <mxCell id="Brh_mnJi5IMDe2LUyWTu-13" value="" style="group" parent="1" vertex="1" connectable="0">
                    <mxGeometry x="350" y="120" width="510" height="810" as="geometry"/>
                </mxCell>
                <mxCell id="Brh_mnJi5IMDe2LUyWTu-18" value="&lt;span style=&quot;color: rgba(237, 237, 237, 0); font-family: monospace; font-size: 0px; text-align: start;&quot;&gt;%3CmxGraphModel%3E%3Croot%3E%3CmxCell%20id%3D%220%22%2F%3E%3CmxCell%20id%3D%221%22%20parent%3D%220%22%2F%3E%3CmxCell%20id%3D%222%22%20value%3D%22%5Bmessage%5D%22%20style%3D%22html%3D1%3BverticalAlign%3Dbottom%3BendArrow%3Dblock%3Brounded%3D0%3BexitX%3D0.983%3BexitY%3D0.126%3BexitDx%3D0%3BexitDy%3D0%3BexitPerimeter%3D0%3B%22%20edge%3D%221%22%20parent%3D%221%22%3E%3CmxGeometry%20x%3D%220.0009%22%20relative%3D%221%22%20as%3D%22geometry%22%3E%3CmxPoint%20x%3D%22325%22%20y%3D%22240%22%20as%3D%22sourcePoint%22%2F%3E%3CmxPoint%20x%3D%22475%22%20y%3D%22240%22%20as%3D%22targetPoint%22%2F%3E%3CmxPoint%20as%3D%22offset%22%2F%3E%3C%2FmxGeometry%3E%3C%2FmxCell%3E%3C%2Froot%3E%3C%2FmxGraphModel%3E&lt;/span&gt;" style="html=1;points=[];perimeter=orthogonalPerimeter;fillColor=#DAE8FC;strokeColor=#6C8EBF;" parent="Brh_mnJi5IMDe2LUyWTu-13" vertex="1">
                    <mxGeometry x="45" y="120" width="10" height="320" as="geometry"/>
                </mxCell>
                <mxCell id="Brh_mnJi5IMDe2LUyWTu-14" value="Moderation controller" style="rounded=0;whiteSpace=wrap;html=1;strokeColor=#6C8EBF;fillColor=#DAE8FC;" parent="Brh_mnJi5IMDe2LUyWTu-13" vertex="1">
                    <mxGeometry width="100" height="40" as="geometry"/>
                </mxCell>
                <mxCell id="Brh_mnJi5IMDe2LUyWTu-16" value="" style="endArrow=none;html=1;rounded=0;entryX=0.5;entryY=1;entryDx=0;entryDy=0;exitX=0.5;exitY=0;exitDx=0;exitDy=0;strokeColor=#6C8EBF;dashed=1;" parent="Brh_mnJi5IMDe2LUyWTu-13" source="Brh_mnJi5IMDe2LUyWTu-18" target="Brh_mnJi5IMDe2LUyWTu-14" edge="1">
                    <mxGeometry width="50" height="50" relative="1" as="geometry">
                        <mxPoint x="40" y="500" as="sourcePoint"/>
                        <mxPoint x="90" y="450" as="targetPoint"/>
                    </mxGeometry>
                </mxCell>
                <mxCell id="92TVlqA5jm0-_uSgaXrH-5" style="rounded=0;orthogonalLoop=1;jettySize=auto;html=1;endArrow=open;endFill=0;dashed=1;exitX=0;exitY=1.001;exitDx=0;exitDy=0;exitPerimeter=0;entryX=1.005;entryY=0.834;entryDx=0;entryDy=0;entryPerimeter=0;" edge="1" parent="Brh_mnJi5IMDe2LUyWTu-13">
                    <mxGeometry relative="1" as="geometry">
                        <mxPoint x="54.99999999999994" y="399.65999999999997" as="targetPoint"/>
                        <mxPoint x="204.95000000000005" y="399.65999999999997" as="sourcePoint"/>
                    </mxGeometry>
                </mxCell>
                <mxCell id="92TVlqA5jm0-_uSgaXrH-6" value="error" style="edgeLabel;html=1;align=center;verticalAlign=bottom;resizable=0;points=[];" vertex="1" connectable="0" parent="92TVlqA5jm0-_uSgaXrH-5">
                    <mxGeometry x="-0.0596" y="-1" relative="1" as="geometry">
                        <mxPoint as="offset"/>
                    </mxGeometry>
                </mxCell>
                <mxCell id="Brh_mnJi5IMDe2LUyWTu-15" value="Moderation controller" style="rounded=0;whiteSpace=wrap;html=1;strokeColor=#6C8EBF;fillColor=#DAE8FC;" parent="Brh_mnJi5IMDe2LUyWTu-13" vertex="1">
                    <mxGeometry y="520" width="100" height="40" as="geometry"/>
                </mxCell>
                <mxCell id="Brh_mnJi5IMDe2LUyWTu-17" value="" style="endArrow=none;html=1;rounded=0;entryX=0.5;entryY=1;entryDx=0;entryDy=0;exitX=0.5;exitY=0;exitDx=0;exitDy=0;strokeColor=#6C8EBF;dashed=1;" parent="Brh_mnJi5IMDe2LUyWTu-13" target="Brh_mnJi5IMDe2LUyWTu-18" edge="1" source="Brh_mnJi5IMDe2LUyWTu-15">
                    <mxGeometry width="50" height="50" relative="1" as="geometry">
                        <mxPoint x="50" y="480" as="sourcePoint"/>
                        <mxPoint x="50" y="460" as="targetPoint"/>
                    </mxGeometry>
                </mxCell>
                <mxCell id="92TVlqA5jm0-_uSgaXrH-3" style="rounded=0;orthogonalLoop=1;jettySize=auto;html=1;endArrow=open;endFill=0;dashed=1;exitX=-0.106;exitY=0.991;exitDx=0;exitDy=0;exitPerimeter=0;entryX=0.872;entryY=0.8;entryDx=0;entryDy=0;entryPerimeter=0;" edge="1" parent="Brh_mnJi5IMDe2LUyWTu-13">
                    <mxGeometry relative="1" as="geometry">
                        <mxPoint x="213.7199999999998" y="361.08" as="targetPoint"/>
                        <mxPoint x="362.69000000000005" y="359.99999999999994" as="sourcePoint"/>
                    </mxGeometry>
                </mxCell>
                <mxCell id="92TVlqA5jm0-_uSgaXrH-4" value="error" style="edgeLabel;html=1;align=center;verticalAlign=bottom;resizable=0;points=[];" vertex="1" connectable="0" parent="92TVlqA5jm0-_uSgaXrH-3">
                    <mxGeometry x="-0.0596" y="-1" relative="1" as="geometry">
                        <mxPoint as="offset"/>
                    </mxGeometry>
                </mxCell>
                <mxCell id="hI0j3te1_Zp4ngGJVeRy-8" value="&lt;span&gt;retrieveLogs(filterParams)&lt;/span&gt;" style="html=1;verticalAlign=bottom;endArrow=block;rounded=0;exitX=1.259;exitY=0.204;exitDx=0;exitDy=0;exitPerimeter=0;entryX=0.225;entryY=0.003;entryDx=0;entryDy=0;entryPerimeter=0;" parent="Brh_mnJi5IMDe2LUyWTu-13" edge="1">
                    <mxGeometry x="0.0009" relative="1" as="geometry">
                        <mxPoint x="214.99999999999991" y="200.32000000000008" as="sourcePoint"/>
                        <mxPoint x="363.40999999999957" y="199.99999999999991" as="targetPoint"/>
                        <mxPoint as="offset"/>
                    </mxGeometry>
                </mxCell>
                <mxCell id="Azk_zE3-HLmkHe_Xyl0X-1" value="View Audit Logs" style="shape=umlFrame;whiteSpace=wrap;html=1;width=120;height=30;boundedLbl=1;verticalAlign=middle;align=left;spacingLeft=5;fillColor=#f5f5f5;fontColor=#333333;strokeColor=#666666;" parent="Brh_mnJi5IMDe2LUyWTu-13" vertex="1">
                    <mxGeometry x="-340" y="-40" width="800" height="640" as="geometry"/>
                </mxCell>
                <mxCell id="f-mqI0CYQHJbRvDZa1W0-16" value="" style="group;verticalAlign=top;spacingTop=36;" parent="1" vertex="1" connectable="0">
                    <mxGeometry x="700" y="110" width="39.25" height="500" as="geometry"/>
                </mxCell>
                <mxCell id="f-mqI0CYQHJbRvDZa1W0-7" value="Database" style="shape=cylinder3;whiteSpace=wrap;html=1;boundedLbl=1;backgroundOutline=1;size=15;strokeColor=#9673A6;fillColor=#E1D5E7;verticalAlign=middle;spacingTop=36;" parent="f-mqI0CYQHJbRvDZa1W0-16" vertex="1">
                    <mxGeometry width="37.5" height="50" as="geometry"/>
                </mxCell>
                <mxCell id="Al805DOzdkPpneg158_Z-17" value="requestAuditLogs(filterParams)" style="html=1;verticalAlign=bottom;endArrow=block;rounded=0;exitX=1.003;exitY=0.128;exitDx=0;exitDy=0;exitPerimeter=0;entryX=0.003;entryY=-0.002;entryDx=0;entryDy=0;entryPerimeter=0;" parent="1" edge="1">
                    <mxGeometry x="0.0009" relative="1" as="geometry">
                        <mxPoint x="245.02999999999997" y="241.52000000000004" as="sourcePoint"/>
                        <mxPoint x="395.03" y="239.99999999999994" as="targetPoint"/>
                        <mxPoint as="offset"/>
                    </mxGeometry>
                </mxCell>
                <mxCell id="f-mqI0CYQHJbRvDZa1W0-10" value="getLogs(filterParams)" style="html=1;verticalAlign=bottom;endArrow=block;rounded=0;exitX=0.994;exitY=0.166;exitDx=0;exitDy=0;exitPerimeter=0;entryX=0.006;entryY=0;entryDx=0;entryDy=0;entryPerimeter=0;" parent="1" edge="1">
                    <mxGeometry x="0.0009" relative="1" as="geometry">
                        <mxPoint x="404.94000000000005" y="280.00000000000006" as="sourcePoint"/>
                        <mxPoint x="555.06" y="280.16" as="targetPoint"/>
                        <mxPoint as="offset"/>
                    </mxGeometry>
                </mxCell>
                <mxCell id="hI0j3te1_Zp4ngGJVeRy-11" style="rounded=0;orthogonalLoop=1;jettySize=auto;html=1;endArrow=open;endFill=0;dashed=1;exitX=0;exitY=1.001;exitDx=0;exitDy=0;exitPerimeter=0;entryX=1.005;entryY=0.834;entryDx=0;entryDy=0;entryPerimeter=0;" parent="1" edge="1">
                    <mxGeometry relative="1" as="geometry">
                        <mxPoint x="405.04999999999995" y="399.65999999999997" as="targetPoint"/>
                        <mxPoint x="555" y="399.65999999999997" as="sourcePoint"/>
                    </mxGeometry>
                </mxCell>
                <mxCell id="hI0j3te1_Zp4ngGJVeRy-12" value="logs" style="edgeLabel;html=1;align=center;verticalAlign=bottom;resizable=0;points=[];" parent="hI0j3te1_Zp4ngGJVeRy-11" vertex="1" connectable="0">
                    <mxGeometry x="-0.0596" y="-1" relative="1" as="geometry">
                        <mxPoint as="offset"/>
                    </mxGeometry>
                </mxCell>
                <mxCell id="hI0j3te1_Zp4ngGJVeRy-13" style="rounded=0;orthogonalLoop=1;jettySize=auto;html=1;endArrow=open;endFill=0;dashed=1;exitX=-0.037;exitY=0.998;exitDx=0;exitDy=0;exitPerimeter=0;entryX=1.004;entryY=0.749;entryDx=0;entryDy=0;entryPerimeter=0;" parent="1" edge="1">
                    <mxGeometry relative="1" as="geometry">
                        <mxPoint x="565.04" y="359.66" as="targetPoint"/>
                        <mxPoint x="713.3800000000001" y="359.66" as="sourcePoint"/>
                        <Array as="points">
                            <mxPoint x="690" y="359.82"/>
                            <mxPoint x="600" y="359.82"/>
                        </Array>
                    </mxGeometry>
                </mxCell>
                <mxCell id="hI0j3te1_Zp4ngGJVeRy-14" value="logs" style="edgeLabel;html=1;align=center;verticalAlign=bottom;resizable=0;points=[];" parent="hI0j3te1_Zp4ngGJVeRy-13" vertex="1" connectable="0">
                    <mxGeometry x="-0.0596" y="-1" relative="1" as="geometry">
                        <mxPoint as="offset"/>
                    </mxGeometry>
                </mxCell>
                <mxCell id="RKpe-7u0rJ-MWehzNpvw-4" value="" style="group" parent="1" vertex="1" connectable="0">
                    <mxGeometry x="70" y="110" width="20" height="480" as="geometry"/>
                </mxCell>
                <mxCell id="Brh_mnJi5IMDe2LUyWTu-6" value="" style="group" parent="RKpe-7u0rJ-MWehzNpvw-4" vertex="1" connectable="0">
                    <mxGeometry y="10" width="20" height="480" as="geometry"/>
                </mxCell>
                <mxCell id="Al805DOzdkPpneg158_Z-26" value="Moderator" style="shape=umlActor;verticalLabelPosition=middle;verticalAlign=top;html=1;outlineConnect=0;strokeColor=light-dark(#B85450,#D7817E);fillColor=light-dark(#F8CECC,#512D2B);labelPosition=center;align=center;spacingTop=36;" parent="Brh_mnJi5IMDe2LUyWTu-6" vertex="1">
                    <mxGeometry width="20" height="40" as="geometry"/>
                </mxCell>
                <mxCell id="Brh_mnJi5IMDe2LUyWTu-5" value="&lt;span style=&quot;color: rgba(0, 0, 0, 0); font-family: monospace; font-size: 0px; text-align: start;&quot;&gt;%3CmxGraphModel%3E%3Croot%3E%3CmxCell%20id%3D%220%22%2F%3E%3CmxCell%20id%3D%221%22%20parent%3D%220%22%2F%3E%3CmxCell%20id%3D%222%22%20value%3D%22%5Bmessage%5D%22%20style%3D%22html%3D1%3BverticalAlign%3Dbottom%3BendArrow%3Dblock%3Brounded%3D0%3BexitX%3D0.983%3BexitY%3D0.126%3BexitDx%3D0%3BexitDy%3D0%3BexitPerimeter%3D0%3B%22%20edge%3D%221%22%20parent%3D%221%22%3E%3CmxGeometry%20x%3D%220.0009%22%20relative%3D%221%22%20as%3D%22geometry%22%3E%3CmxPoint%20x%3D%22325%22%20y%3D%22240%22%20as%3D%22sourcePoint%22%2F%3E%3CmxPoint%20x%3D%22475%22%20y%3D%22240%22%20as%3D%22targetPoint%22%2F%3E%3CmxPoint%20as%3D%22offset%22%2F%3E%3C%2FmxGeometry%3E%3C%2FmxCell%3E%3C%2Froot%3E%3C%2FmxGraphModel%3E&lt;/span&gt;" style="html=1;points=[];perimeter=orthogonalPerimeter;fillColor=#FFE6CC00;strokeColor=#D79B0000;" parent="Brh_mnJi5IMDe2LUyWTu-6" vertex="1">
                    <mxGeometry x="5" y="80" width="10" height="320" as="geometry"/>
                </mxCell>
                <mxCell id="Brh_mnJi5IMDe2LUyWTu-4" value="openAuditLogPage(filterParams)" style="html=1;verticalAlign=bottom;endArrow=block;rounded=0;entryX=0.018;entryY=0;entryDx=0;entryDy=0;entryPerimeter=0;exitX=0.486;exitY=0.001;exitDx=0;exitDy=0;exitPerimeter=0;" parent="1" edge="1">
                    <mxGeometry x="0.0009" relative="1" as="geometry">
                        <mxPoint x="79.86000000000001" y="200.32000000000005" as="sourcePoint"/>
                        <mxPoint x="235.17999999999995" y="200" as="targetPoint"/>
                        <mxPoint as="offset"/>
                    </mxGeometry>
                </mxCell>
                <mxCell id="Brh_mnJi5IMDe2LUyWTu-12" value="" style="group" parent="1" vertex="1" connectable="0">
                    <mxGeometry x="190" y="120" width="100" height="560" as="geometry"/>
                </mxCell>
                <mxCell id="Brh_mnJi5IMDe2LUyWTu-7" value="&lt;div&gt;&lt;span style=&quot;background-color: transparent;&quot;&gt;Moderation panel&lt;/span&gt;&lt;/div&gt;" style="rounded=0;whiteSpace=wrap;html=1;strokeColor=#D79B00;fillColor=#FFE6CC;" parent="Brh_mnJi5IMDe2LUyWTu-12" vertex="1">
                    <mxGeometry width="100" height="40" as="geometry"/>
                </mxCell>
                <mxCell id="Brh_mnJi5IMDe2LUyWTu-9" value="" style="endArrow=none;html=1;rounded=0;entryX=0.5;entryY=1;entryDx=0;entryDy=0;exitX=0.5;exitY=0;exitDx=0;exitDy=0;strokeColor=#D79B00;dashed=1;" parent="Brh_mnJi5IMDe2LUyWTu-12" source="Brh_mnJi5IMDe2LUyWTu-10" target="Brh_mnJi5IMDe2LUyWTu-7" edge="1">
                    <mxGeometry width="50" height="50" relative="1" as="geometry">
                        <mxPoint x="40" y="500" as="sourcePoint"/>
                        <mxPoint x="90" y="450" as="targetPoint"/>
                    </mxGeometry>
                </mxCell>
                <mxCell id="Brh_mnJi5IMDe2LUyWTu-10" value="&lt;span style=&quot;color: rgba(237, 237, 237, 0); font-family: monospace; font-size: 0px; text-align: start;&quot;&gt;%3CmxGraphModel%3E%3Croot%3E%3CmxCell%20id%3D%220%22%2F%3E%3CmxCell%20id%3D%221%22%20parent%3D%220%22%2F%3E%3CmxCell%20id%3D%222%22%20value%3D%22%5Bmessage%5D%22%20style%3D%22html%3D1%3BverticalAlign%3Dbottom%3BendArrow%3Dblock%3Brounded%3D0%3BexitX%3D0.983%3BexitY%3D0.126%3BexitDx%3D0%3BexitDy%3D0%3BexitPerimeter%3D0%3B%22%20edge%3D%221%22%20parent%3D%221%22%3E%3CmxGeometry%20x%3D%220.0009%22%20relative%3D%221%22%20as%3D%22geometry%22%3E%3CmxPoint%20x%3D%22325%22%20y%3D%22240%22%20as%3D%22sourcePoint%22%2F%3E%3CmxPoint%20x%3D%22475%22%20y%3D%22240%22%20as%3D%22targetPoint%22%2F%3E%3CmxPoint%20as%3D%22offset%22%2F%3E%3C%2FmxGeometry%3E%3C%2FmxCell%3E%3C%2Froot%3E%3C%2FmxGraphModel%3E&lt;/span&gt;" style="html=1;points=[];perimeter=orthogonalPerimeter;fillColor=#ffe6cc;strokeColor=#d79b00;" parent="Brh_mnJi5IMDe2LUyWTu-12" vertex="1">
                    <mxGeometry x="45" y="80" width="10" height="400" as="geometry"/>
                </mxCell>
                <mxCell id="Brh_mnJi5IMDe2LUyWTu-8" value="&lt;div&gt;&lt;span style=&quot;background-color: transparent;&quot;&gt;Moderation panel&lt;/span&gt;&lt;/div&gt;" style="rounded=0;whiteSpace=wrap;html=1;strokeColor=#D79B00;fillColor=#FFE6CC;" parent="Brh_mnJi5IMDe2LUyWTu-12" vertex="1">
                    <mxGeometry y="520" width="100" height="40" as="geometry"/>
                </mxCell>
                <mxCell id="GcUM16dZAKmVqHmi4yjc-4" value="" style="endArrow=none;html=1;rounded=0;exitX=0.5;exitY=0;exitDx=0;exitDy=0;strokeColor=#D79B00;dashed=1;entryX=0.376;entryY=1.001;entryDx=0;entryDy=0;entryPerimeter=0;" parent="Brh_mnJi5IMDe2LUyWTu-12" source="Brh_mnJi5IMDe2LUyWTu-8" target="Brh_mnJi5IMDe2LUyWTu-10" edge="1">
                    <mxGeometry width="50" height="50" relative="1" as="geometry">
                        <mxPoint x="50" y="800" as="sourcePoint"/>
                        <mxPoint x="50" y="460" as="targetPoint"/>
                    </mxGeometry>
                </mxCell>
                <mxCell id="92TVlqA5jm0-_uSgaXrH-7" style="rounded=0;orthogonalLoop=1;jettySize=auto;html=1;endArrow=open;endFill=0;dashed=1;exitX=0;exitY=1.001;exitDx=0;exitDy=0;exitPerimeter=0;entryX=1.005;entryY=0.834;entryDx=0;entryDy=0;entryPerimeter=0;" edge="1" parent="Brh_mnJi5IMDe2LUyWTu-12">
                    <mxGeometry relative="1" as="geometry">
                        <mxPoint x="54.99999999999994" y="440" as="targetPoint"/>
                        <mxPoint x="204.95000000000005" y="440" as="sourcePoint"/>
                    </mxGeometry>
                </mxCell>
                <mxCell id="92TVlqA5jm0-_uSgaXrH-8" value="&lt;span&gt;show(result{status=&#39;error&#39;, data=error})&lt;/span&gt;" style="edgeLabel;html=1;align=center;verticalAlign=bottom;resizable=0;points=[];labelBackgroundColor=none;" vertex="1" connectable="0" parent="92TVlqA5jm0-_uSgaXrH-7">
                    <mxGeometry x="-0.0596" y="-1" relative="1" as="geometry">
                        <mxPoint as="offset"/>
                    </mxGeometry>
                </mxCell>
                <mxCell id="Brh_mnJi5IMDe2LUyWTu-19" value="" style="group" parent="1" vertex="1" connectable="0">
                    <mxGeometry x="510" y="120" width="100" height="560" as="geometry"/>
                </mxCell>
                <mxCell id="Brh_mnJi5IMDe2LUyWTu-20" value="Audit log" style="rounded=0;whiteSpace=wrap;html=1;strokeColor=#82B366;fillColor=#D5E8D4;" parent="Brh_mnJi5IMDe2LUyWTu-19" vertex="1">
                    <mxGeometry width="100" height="40" as="geometry"/>
                </mxCell>
                <mxCell id="Brh_mnJi5IMDe2LUyWTu-22" value="" style="endArrow=none;html=1;rounded=0;entryX=0.5;entryY=1;entryDx=0;entryDy=0;exitX=0.5;exitY=0;exitDx=0;exitDy=0;strokeColor=#82B366;dashed=1;" parent="Brh_mnJi5IMDe2LUyWTu-19" source="Brh_mnJi5IMDe2LUyWTu-24" target="Brh_mnJi5IMDe2LUyWTu-20" edge="1">
                    <mxGeometry width="50" height="50" relative="1" as="geometry">
                        <mxPoint x="40" y="500" as="sourcePoint"/>
                        <mxPoint x="90" y="450" as="targetPoint"/>
                    </mxGeometry>
                </mxCell>
                <mxCell id="Brh_mnJi5IMDe2LUyWTu-24" value="&lt;span style=&quot;color: rgba(237, 237, 237, 0); font-family: monospace; font-size: 0px; text-align: start;&quot;&gt;%3CmxGraphModel%3E%3Croot%3E%3CmxCell%20id%3D%220%22%2F%3E%3CmxCell%20id%3D%221%22%20parent%3D%220%22%2F%3E%3CmxCell%20id%3D%222%22%20value%3D%22%5Bmessage%5D%22%20style%3D%22html%3D1%3BverticalAlign%3Dbottom%3BendArrow%3Dblock%3Brounded%3D0%3BexitX%3D0.983%3BexitY%3D0.126%3BexitDx%3D0%3BexitDy%3D0%3BexitPerimeter%3D0%3B%22%20edge%3D%221%22%20parent%3D%221%22%3E%3CmxGeometry%20x%3D%220.0009%22%20relative%3D%221%22%20as%3D%22geometry%22%3E%3CmxPoint%20x%3D%22325%22%20y%3D%22240%22%20as%3D%22sourcePoint%22%2F%3E%3CmxPoint%20x%3D%22475%22%20y%3D%22240%22%20as%3D%22targetPoint%22%2F%3E%3CmxPoint%20as%3D%22offset%22%2F%3E%3C%2FmxGeometry%3E%3C%2FmxCell%3E%3C%2Froot%3E%3C%2FmxGraphModel%3E&lt;/span&gt;" style="html=1;points=[];perimeter=orthogonalPerimeter;fillColor=#D5E8D4;strokeColor=#82B366;" parent="Brh_mnJi5IMDe2LUyWTu-19" vertex="1">
                    <mxGeometry x="45" y="160" width="10" height="240" as="geometry"/>
                </mxCell>
                <mxCell id="Brh_mnJi5IMDe2LUyWTu-21" value="Audit log" style="rounded=0;whiteSpace=wrap;html=1;strokeColor=#82B366;fillColor=#D5E8D4;" parent="Brh_mnJi5IMDe2LUyWTu-19" vertex="1">
                    <mxGeometry y="520" width="100" height="40" as="geometry"/>
                </mxCell>
                <mxCell id="Brh_mnJi5IMDe2LUyWTu-23" value="" style="endArrow=none;html=1;rounded=0;entryX=0.5;entryY=1;entryDx=0;entryDy=0;exitX=0.5;exitY=0;exitDx=0;exitDy=0;strokeColor=#82B366;dashed=1;" parent="Brh_mnJi5IMDe2LUyWTu-19" source="Brh_mnJi5IMDe2LUyWTu-21" target="Brh_mnJi5IMDe2LUyWTu-24" edge="1">
                    <mxGeometry width="50" height="50" relative="1" as="geometry">
                        <mxPoint x="50" y="520" as="sourcePoint"/>
                        <mxPoint x="50" y="460" as="targetPoint"/>
                    </mxGeometry>
                </mxCell>
                <mxCell id="f-mqI0CYQHJbRvDZa1W0-15" value="Database" style="shape=cylinder3;whiteSpace=wrap;html=1;boundedLbl=1;backgroundOutline=1;size=15;strokeColor=#9673A6;fillColor=#E1D5E7;spacingTop=36;" parent="1" vertex="1">
                    <mxGeometry x="700.88" y="640" width="37.5" height="50" as="geometry"/>
                </mxCell>
                <mxCell id="f-mqI0CYQHJbRvDZa1W0-14" value="" style="endArrow=none;html=1;rounded=0;entryX=0.5;entryY=1;entryDx=0;entryDy=0;entryPerimeter=0;exitX=0.5;exitY=0;exitDx=0;exitDy=0;exitPerimeter=0;dashed=1;strokeColor=#9673A6;" parent="1" source="Al805DOzdkPpneg158_Z-13" target="f-mqI0CYQHJbRvDZa1W0-7" edge="1">
                    <mxGeometry width="50" height="50" relative="1" as="geometry">
                        <mxPoint x="508.75" y="310" as="sourcePoint"/>
                        <mxPoint x="558.75" y="260" as="targetPoint"/>
                    </mxGeometry>
                </mxCell>
                <mxCell id="92TVlqA5jm0-_uSgaXrH-9" style="rounded=0;orthogonalLoop=1;jettySize=auto;html=1;endArrow=open;endFill=0;dashed=1;entryX=1.005;entryY=0.834;entryDx=0;entryDy=0;entryPerimeter=0;" edge="1" parent="1">
                    <mxGeometry relative="1" as="geometry">
                        <mxPoint x="79.99999999999994" y="600" as="targetPoint"/>
                        <mxPoint x="240" y="600" as="sourcePoint"/>
                    </mxGeometry>
                </mxCell>
                <mxCell id="92TVlqA5jm0-_uSgaXrH-10" value="display(result)" style="edgeLabel;html=1;align=center;verticalAlign=bottom;resizable=0;points=[];" vertex="1" connectable="0" parent="92TVlqA5jm0-_uSgaXrH-9">
                    <mxGeometry x="-0.0596" y="-1" relative="1" as="geometry">
                        <mxPoint as="offset"/>
                    </mxGeometry>
                </mxCell>
                <mxCell id="RKpe-7u0rJ-MWehzNpvw-2" value="Moderator" style="shape=umlActor;verticalLabelPosition=middle;verticalAlign=top;html=1;outlineConnect=0;strokeColor=light-dark(#B85450,#D7817E);fillColor=light-dark(#F8CECC,#512D2B);labelPosition=center;align=center;spacingTop=36;" parent="1" vertex="1">
                    <mxGeometry x="70" y="640" width="20" height="40" as="geometry"/>
                </mxCell>
                <mxCell id="RKpe-7u0rJ-MWehzNpvw-3" value="" style="endArrow=none;html=1;rounded=0;entryX=0.5;entryY=0;entryDx=0;entryDy=0;entryPerimeter=0;dashed=1;strokeColor=#B85450;" parent="1" source="Al805DOzdkPpneg158_Z-26" target="RKpe-7u0rJ-MWehzNpvw-2" edge="1">
                    <mxGeometry width="50" height="50" relative="1" as="geometry">
                        <mxPoint x="170" y="390" as="sourcePoint"/>
                        <mxPoint x="220" y="340" as="targetPoint"/>
                    </mxGeometry>
                </mxCell>
                <mxCell id="92TVlqA5jm0-_uSgaXrH-11" value="" style="endArrow=none;html=1;rounded=0;entryX=0.5;entryY=1;entryDx=0;entryDy=0;entryPerimeter=0;exitX=0.5;exitY=0;exitDx=0;exitDy=0;exitPerimeter=0;dashed=1;strokeColor=#9673A6;" edge="1" parent="1" source="f-mqI0CYQHJbRvDZa1W0-15" target="Al805DOzdkPpneg158_Z-13">
                    <mxGeometry width="50" height="50" relative="1" as="geometry">
                        <mxPoint x="720" y="600" as="sourcePoint"/>
                        <mxPoint x="719" y="160" as="targetPoint"/>
                    </mxGeometry>
                </mxCell>
                <mxCell id="Al805DOzdkPpneg158_Z-13" value="" style="html=1;points=[];perimeter=orthogonalPerimeter;fillColor=#e1d5e7;strokeColor=#9673a6;" parent="1" vertex="1">
                    <mxGeometry x="713.75" y="320" width="10" height="160" as="geometry"/>
                </mxCell>
                <mxCell id="vZgmVjyNEYdbBSF4hD-2-2" style="rounded=0;orthogonalLoop=1;jettySize=auto;html=1;endArrow=open;endFill=0;dashed=1;exitX=0;exitY=1.001;exitDx=0;exitDy=0;exitPerimeter=0;entryX=1.005;entryY=0.834;entryDx=0;entryDy=0;entryPerimeter=0;" edge="1" parent="1">
                    <mxGeometry relative="1" as="geometry">
                        <mxPoint x="249.99999999999994" y="440" as="targetPoint"/>
                        <mxPoint x="399.95000000000005" y="440" as="sourcePoint"/>
                    </mxGeometry>
                </mxCell>
                <mxCell id="vZgmVjyNEYdbBSF4hD-2-3" value="show(result{status=&#39;success&#39;, data=logs})" style="edgeLabel;html=1;align=center;verticalAlign=bottom;resizable=0;points=[];labelBackgroundColor=none;" vertex="1" connectable="0" parent="vZgmVjyNEYdbBSF4hD-2-2">
                    <mxGeometry x="-0.0596" y="-1" relative="1" as="geometry">
                        <mxPoint as="offset"/>
                    </mxGeometry>
                </mxCell>
                <mxCell id="ZKgcspHGEeRy7NXRHhcd-1" value="" style="group" vertex="1" connectable="0" parent="1">
                    <mxGeometry x="150" y="330" width="620" height="250" as="geometry"/>
                </mxCell>
                <mxCell id="ZKgcspHGEeRy7NXRHhcd-2" value="alt" style="shape=umlFrame;whiteSpace=wrap;html=1;fillColor=#f5f5f5;fontColor=#333333;strokeColor=#666666;" vertex="1" parent="ZKgcspHGEeRy7NXRHhcd-1">
                    <mxGeometry width="620" height="250" as="geometry"/>
                </mxCell>
                <mxCell id="ZKgcspHGEeRy7NXRHhcd-3" value="retrieval success" style="text;html=1;align=center;verticalAlign=middle;resizable=0;points=[];autosize=1;strokeColor=none;fillColor=none;" vertex="1" parent="ZKgcspHGEeRy7NXRHhcd-1">
                    <mxGeometry y="31.248106060606062" width="110" height="30" as="geometry"/>
                </mxCell>
                <mxCell id="ZKgcspHGEeRy7NXRHhcd-4" value="retrieval failure" style="text;html=1;align=center;verticalAlign=middle;resizable=0;points=[];autosize=1;strokeColor=none;fillColor=none;" vertex="1" parent="ZKgcspHGEeRy7NXRHhcd-1">
                    <mxGeometry x="-5" y="143.93939393939394" width="100" height="30" as="geometry"/>
                </mxCell>
                <mxCell id="ZKgcspHGEeRy7NXRHhcd-5" value="" style="endArrow=none;dashed=1;html=1;rounded=0;entryX=1.001;entryY=0.522;entryDx=0;entryDy=0;entryPerimeter=0;exitX=0.002;exitY=0.522;exitDx=0;exitDy=0;exitPerimeter=0;" edge="1" parent="ZKgcspHGEeRy7NXRHhcd-1" source="ZKgcspHGEeRy7NXRHhcd-2" target="ZKgcspHGEeRy7NXRHhcd-2">
                    <mxGeometry width="50" height="50" relative="1" as="geometry">
                        <mxPoint y="130" as="sourcePoint"/>
                        <mxPoint x="620" y="130.75" as="targetPoint"/>
                    </mxGeometry>
                </mxCell>
            </root>
        </mxGraphModel>
    </diagram>
</mxfile>